<svg id="visual" viewBox="0 0 900 600" width="900" height="600" xmlns="http://www.w3.org/2000/svg" xmlns:xlink="http://www.w3.org/1999/xlink" version="1.1"><rect width="900" height="600" fill="#FFFFFF"></rect><g><g transform="translate(351 4)"><path d="M0 -34.7L30 -17.3L30 17.3L0 34.7L-30 17.3L-30 -17.3Z" fill="#ffbf8b"></path></g><g transform="translate(628 171)"><path d="M0 -27L23.4 -13.5L23.4 13.5L0 27L-23.4 13.5L-23.4 -13.5Z" fill="#ffbf8b"></path></g><g transform="translate(860 556)"><path d="M0 -22L19.1 -11L19.1 11L0 22L-19.1 11L-19.1 -11Z" fill="#ffbf8b"></path></g><g transform="translate(169 138)"><path d="M0 -29L25.1 -14.5L25.1 14.5L0 29L-25.1 14.5L-25.1 -14.5Z" fill="#ffbf8b"></path></g><g transform="translate(93 448)"><path d="M0 -26L22.5 -13L22.5 13L0 26L-22.5 13L-22.5 -13Z" fill="#ffbf8b"></path></g><g transform="translate(91 367)"><path d="M0 -31L26.8 -15.5L26.8 15.5L0 31L-26.8 15.5L-26.8 -15.5Z" fill="#ffbf8b"></path></g><g transform="translate(321 224)"><path d="M0 -21L18.2 -10.5L18.2 10.5L0 21L-18.2 10.5L-18.2 -10.5Z" fill="#ffbf8b"></path></g><g transform="translate(93 154)"><path d="M0 -29L25.1 -14.5L25.1 14.5L0 29L-25.1 14.5L-25.1 -14.5Z" fill="#ffbf8b"></path></g><g transform="translate(432 332)"><path d="M0 -30L26 -15L26 15L0 30L-26 15L-26 -15Z" fill="#ffbf8b"></path></g><g transform="translate(834 373)"><path d="M0 -24L20.8 -12L20.8 12L0 24L-20.8 12L-20.8 -12Z" fill="#ffbf8b"></path></g><g transform="translate(703 321)"><path d="M0 -18L15.6 -9L15.6 9L0 18L-15.6 9L-15.6 -9Z" fill="#ffbf8b"></path></g><g transform="translate(350 445)"><path d="M0 -28L24.2 -14L24.2 14L0 28L-24.2 14L-24.2 -14Z" fill="#ffbf8b"></path></g><g transform="translate(558 264)"><path d="M0 -29L25.1 -14.5L25.1 14.5L0 29L-25.1 14.5L-25.1 -14.5Z" fill="#ffbf8b"></path></g><g transform="translate(710 250)"><path d="M0 -30L26 -15L26 15L0 30L-26 15L-26 -15Z" fill="#ffbf8b"></path></g><g transform="translate(186 436)"><path d="M0 -17L14.7 -8.5L14.7 8.5L0 17L-14.7 8.5L-14.7 -8.5Z" fill="#ffbf8b"></path></g></g></svg>