<svg xmlns="http://www.w3.org/2000/svg" xmlns:xlink="http://www.w3.org/1999/xlink" width="67" height="67" viewBox="0 0 67 67"><defs><clipPath id="clip-path"><rect id="Rect&#xE1;ngulo_416" data-name="Rect&#xE1;ngulo 416" width="31.424" height="32.765" fill="none" stroke="#ff8906" stroke-width="1.5"></rect></clipPath></defs><g id="Grupo_628" data-name="Grupo 628" transform="translate(-0.175)"><g id="Elipse_59" data-name="Elipse 59" transform="translate(0.175 0)" fill="none" stroke="#ff8906" stroke-width="1.5"><circle cx="33.5" cy="33.5" r="33.5" stroke="none"></circle><circle cx="33.5" cy="33.5" r="32.75" fill="none"></circle></g><g id="Grupo_185" data-name="Grupo 185" transform="translate(17.965 17.179)" clip-path="url(#clip-path)"><path id="Trazado_1020" data-name="Trazado 1020" d="M5.73,5H4.365A1.365,1.365,0,0,0,3,6.365V9.1a1.365,1.365,0,0,0,1.365,1.365H5.73" transform="translate(-0.952 -1.587)" fill="none" stroke="#ff8906" stroke-linecap="round" stroke-linejoin="round" stroke-width="1.5"></path><path id="Trazado_1021" data-name="Trazado 1021" d="M39,10.461h1.365A1.365,1.365,0,0,0,41.73,9.1V6.365A1.365,1.365,0,0,0,40.365,5H39" transform="translate(-12.379 -1.587)" fill="none" stroke="#ff8906" stroke-linecap="round" stroke-linejoin="round" stroke-width="1.5"></path><path id="Trazado_1022" data-name="Trazado 1022" d="M7,10.741V3.73A2.731,2.731,0,0,1,9.73,1H26.113a2.731,2.731,0,0,1,2.73,2.73v7.01" transform="translate(-2.222 -0.317)" fill="none" stroke="#ff8906" stroke-linecap="round" stroke-linejoin="round" stroke-width="1.5"></path><path id="Trazado_1023" data-name="Trazado 1023" d="M30.761,20.1a1.363,1.363,0,0,1,.273.819v6.371a1.365,1.365,0,0,1-1.365,1.365H2.365A1.365,1.365,0,0,1,1,27.287V20.915a1.363,1.363,0,0,1,.273-.819l3.413-4.55A1.364,1.364,0,0,1,5.778,15H26.256a1.364,1.364,0,0,1,1.092.546Z" transform="translate(-0.317 -4.761)" fill="none" stroke="#ff8906" stroke-linecap="round" stroke-linejoin="round" stroke-width="1.5"></path><path id="Trazado_1024" data-name="Trazado 1024" d="M1,38.72v2.922a2.731,2.731,0,0,0,2.73,2.73H5.1a2.731,2.731,0,0,0,2.73-2.73V38.72" transform="translate(-0.317 -12.29)" fill="none" stroke="#ff8906" stroke-linecap="round" stroke-linejoin="round" stroke-width="1.5"></path><line id="L&#xED;nea_33" data-name="L&#xED;nea 33" y2="2.688" transform="translate(10.239 18.472)" fill="none" stroke="#ff8906" stroke-linecap="round" stroke-linejoin="round" stroke-width="1.5"></line><line id="L&#xED;nea_34" data-name="L&#xED;nea 34" y2="2.688" transform="translate(12.969 18.472)" fill="none" stroke="#ff8906" stroke-linecap="round" stroke-linejoin="round" stroke-width="1.5"></line><line id="L&#xED;nea_35" data-name="L&#xED;nea 35" y2="2.688" transform="translate(15.7 18.472)" fill="none" stroke="#ff8906" stroke-linecap="round" stroke-linejoin="round" stroke-width="1.5"></line><line id="L&#xED;nea_36" data-name="L&#xED;nea 36" y2="2.688" transform="translate(18.43 18.472)" fill="none" stroke="#ff8906" stroke-linecap="round" stroke-linejoin="round" stroke-width="1.5"></line><line id="L&#xED;nea_37" data-name="L&#xED;nea 37" y2="2.688" transform="translate(21.16 18.472)" fill="none" stroke="#ff8906" stroke-linecap="round" stroke-linejoin="round" stroke-width="1.5"></line><circle id="Elipse_25" data-name="Elipse 25" cx="2.048" cy="2.048" r="2.048" transform="translate(23.891 17.747)" fill="none" stroke="#ff8906" stroke-linecap="round" stroke-linejoin="round" stroke-width="1.5"></circle><circle id="Elipse_26" data-name="Elipse 26" cx="2.048" cy="2.048" r="2.048" transform="translate(3.413 17.747)" fill="none" stroke="#ff8906" stroke-linecap="round" stroke-linejoin="round" stroke-width="1.5"></circle><line id="L&#xED;nea_38" data-name="L&#xED;nea 38" y2="9.556" transform="translate(15.7 0.683)" fill="none" stroke="#ff8906" stroke-linecap="round" stroke-linejoin="round" stroke-width="1.5"></line><line id="L&#xED;nea_39" data-name="L&#xED;nea 39" y1="4.651" x2="6.826" transform="translate(7.509 23.933)" fill="none" stroke="#ff8906" stroke-linecap="round" stroke-linejoin="round" stroke-width="1.5"></line><line id="L&#xED;nea_40" data-name="L&#xED;nea 40" x1="6.826" y1="4.651" transform="translate(17.065 23.933)" fill="none" stroke="#ff8906" stroke-linecap="round" stroke-linejoin="round" stroke-width="1.5"></line><path id="Trazado_1025" data-name="Trazado 1025" d="M35.036,38.72v2.922a2.731,2.731,0,0,0,2.73,2.73h1.365a2.731,2.731,0,0,0,2.73-2.73V38.72" transform="translate(-11.121 -12.29)" fill="none" stroke="#ff8906" stroke-linecap="round" stroke-linejoin="round" stroke-width="1.5"></path><line id="L&#xED;nea_41" data-name="L&#xED;nea 41" x2="29.877" transform="translate(0.76 15.7)" fill="none" stroke="#ff8906" stroke-linecap="round" stroke-linejoin="round" stroke-width="1.5"></line></g></g></svg>