<svg xmlns="http://www.w3.org/2000/svg" xmlns:xlink="http://www.w3.org/1999/xlink" width="66" height="67" viewBox="0 0 66 67"><defs><clipPath id="clip-path"><rect id="Rect&#xE1;ngulo_612" data-name="Rect&#xE1;ngulo 612" width="25.824" height="35.631" fill="#33a1fd"></rect></clipPath></defs><g id="Grupo_638" data-name="Grupo 638" transform="translate(-0.2)"><g id="Grupo_637" data-name="Grupo 637" transform="translate(0)"><g id="Grupo_636" data-name="Grupo 636" transform="translate(19.828 15.549)"><g id="Grupo_635" data-name="Grupo 635" transform="translate(0 0)" clip-path="url(#clip-path)"><path id="Trazado_1278" data-name="Trazado 1278" d="M3.788,40.044A3.8,3.8,0,0,1,0,36.229V34.714a3.8,3.8,0,0,1,2.36-3.5,3.835,3.835,0,0,1,1.455-.283,2.508,2.508,0,0,1,.863.166,2.25,2.25,0,0,1,1.4,2.108v4.553a2.3,2.3,0,0,1-2.288,2.287m.021-7.6a2.273,2.273,0,0,0-1.615.66,2.282,2.282,0,0,0-.674,1.609v1.515a2.279,2.279,0,0,0,2.268,2.292.785.785,0,0,0,.77-.776V33.195A.746.746,0,0,0,4.5,32.9a.737.737,0,0,0-.4-.4.829.829,0,0,0-.286-.054Zm1.508,5.3h0Z" transform="translate(0 -7.438)" fill="#33a1fd"></path><path id="Trazado_1279" data-name="Trazado 1279" d="M16.28,9.473A2.279,2.279,0,0,1,15.012,5.3a2.321,2.321,0,0,1,2.877.283,2.279,2.279,0,0,1-1.609,3.89m0-3.038a.758.758,0,0,0-.7.469.76.76,0,0,0,.993.993.76.76,0,0,0-.291-1.461" transform="translate(-3.366 -1.185)" fill="#33a1fd"></path><path id="Trazado_1280" data-name="Trazado 1280" d="M16.038,23.19a4.585,4.585,0,0,1-2.734-.911.76.76,0,1,1,.911-1.215,3.123,3.123,0,0,0,3.646,0,.76.76,0,0,1,.911,1.215,4.585,4.585,0,0,1-2.734.911" transform="translate(-3.126 -5.029)" fill="#33a1fd"></path><path id="Trazado_1281" data-name="Trazado 1281" d="M24.026,14.95a.736.736,0,0,1-.213-.031,37.14,37.14,0,0,0-20.842,0,.759.759,0,1,1-.425-1.458,38.641,38.641,0,0,1,21.692,0,.76.76,0,0,1-.213,1.489" transform="translate(-0.481 -2.864)" fill="#33a1fd"></path><path id="Trazado_1282" data-name="Trazado 1282" d="M21.868,17.984a.76.76,0,0,1-.665-1.125,8.326,8.326,0,0,0,1.026-4.013v-2.2L20.9,4.015a.759.759,0,0,0-.527-.58L14.092,1.551a.757.757,0,0,0-.437,0L7.37,3.436a.755.755,0,0,0-.526.578L5.519,10.642v2.2A8.327,8.327,0,0,0,6.5,16.782a.76.76,0,0,1-1.34.718A9.865,9.865,0,0,1,4,12.844V10.566a.755.755,0,0,1,.014-.149l1.34-6.7A2.278,2.278,0,0,1,6.933,1.981L13.219.1a2.276,2.276,0,0,1,1.308,0l6.286,1.885a2.274,2.274,0,0,1,1.58,1.736l1.34,6.7a.756.756,0,0,1,.015.149v2.279a9.859,9.859,0,0,1-1.213,4.745.759.759,0,0,1-.667.394" transform="translate(-0.962 0)" fill="#33a1fd"></path><path id="Trazado_1283" data-name="Trazado 1283" d="M21.469,45.474H6.279A2.279,2.279,0,0,1,4,43.2v-1.5a.76.76,0,0,1,1.519,0v1.5a.76.76,0,0,0,.76.76H21.469a.76.76,0,0,0,.76-.76v-1.5a.76.76,0,0,1,1.519,0v1.5a2.279,2.279,0,0,1-2.279,2.279" transform="translate(-0.962 -9.843)" fill="#33a1fd"></path><path id="Trazado_1284" data-name="Trazado 1284" d="M22.988,31.483a.759.759,0,0,1-.76-.76V29.191a.76.76,0,0,0-.76-.76H6.279a.76.76,0,0,0-.76.76v1.533a.76.76,0,1,1-1.519,0V29.191a2.279,2.279,0,0,1,2.279-2.279H21.469a2.279,2.279,0,0,1,2.279,2.279v1.533a.759.759,0,0,1-.76.76" transform="translate(-0.962 -6.472)" fill="#33a1fd"></path><path id="Trazado_1285" data-name="Trazado 1285" d="M28.295,40.043A2.3,2.3,0,0,1,26,37.757V37.75l.008-4.557A2.251,2.251,0,0,1,27.4,31.1a2.175,2.175,0,0,1,.87-.171,3.683,3.683,0,0,1,1.449.283,3.8,3.8,0,0,1,2.359,3.5v1.522a3.792,3.792,0,0,1-3.782,3.811m-.775-2.295a.785.785,0,0,0,.23.548.776.776,0,0,0,.548.228,2.261,2.261,0,0,0,.863-.176,2.286,2.286,0,0,0,.736-.5,2.285,2.285,0,0,0,.661-1.616V34.714a2.283,2.283,0,0,0-1.417-2.1,2.445,2.445,0,0,0-.873-.169h0a.744.744,0,0,0-.287.056.735.735,0,0,0-.238.16.725.725,0,0,0-.213.525Z" transform="translate(-6.252 -7.437)" fill="#33a1fd"></path><path id="Trazado_1286" data-name="Trazado 1286" d="M18.079,35.712a1.547,1.547,0,0,1-.3-.03A1.514,1.514,0,0,1,17,35.265l-1.2-1.2-1.2,1.2A1.519,1.519,0,0,1,12,34.193V27.672a.76.76,0,0,1,1.519,0v6.521l1.742-1.742a.759.759,0,0,1,1.074,0l1.741,1.741V27.672a.76.76,0,0,1,1.519,0v6.521a1.518,1.518,0,0,1-1.517,1.519" transform="translate(-2.886 -6.472)" fill="#33a1fd"></path><path id="Trazado_1287" data-name="Trazado 1287" d="M12.639,17.691a1.139,1.139,0,1,1,0-2.279Z" transform="translate(-2.765 -3.706)" fill="#33a1fd"></path><path id="Trazado_1288" data-name="Trazado 1288" d="M13,17.691V15.412a1.139,1.139,0,0,1,0,2.279" transform="translate(-3.126 -3.706)" fill="#33a1fd"></path><path id="Trazado_1289" data-name="Trazado 1289" d="M20.639,17.691a1.139,1.139,0,1,1,0-2.279Z" transform="translate(-4.689 -3.706)" fill="#33a1fd"></path><path id="Trazado_1290" data-name="Trazado 1290" d="M21,17.691V15.412a1.139,1.139,0,1,1,0,2.279" transform="translate(-5.05 -3.706)" fill="#33a1fd"></path></g></g><g id="Elipse_59" data-name="Elipse 59" transform="translate(0.2 0)" fill="none" stroke="#33a1fd" stroke-width="1.5"><ellipse cx="33" cy="33.5" rx="33" ry="33.5" stroke="none"></ellipse><ellipse cx="33" cy="33.5" rx="32.25" ry="32.75" fill="none"></ellipse></g></g></g></svg>