<svg id="visual" viewBox="0 0 450 900" width="450" height="900" xmlns="http://www.w3.org/2000/svg" xmlns:xlink="http://www.w3.org/1999/xlink" version="1.1"><rect width="450" height="900" fill="#ffffff"></rect><g><g transform="translate(16 559)"><path d="M0 -71.9L62.2 -35.9L62.2 35.9L0 71.9L-62.2 35.9L-62.2 -35.9Z" fill="#F77F00"></path></g><g transform="translate(390 887)"><path d="M0 -68L58.9 -34L58.9 34L0 68L-58.9 34L-58.9 -34Z" fill="#F77F00"></path></g><g transform="translate(129 232)"><path d="M0 -62L53.7 -31L53.7 31L0 62L-53.7 31L-53.7 -31Z" fill="#F77F00"></path></g><g transform="translate(234 82)"><path d="M0 -38L32.9 -19L32.9 19L0 38L-32.9 19L-32.9 -19Z" fill="#F77F00"></path></g><g transform="translate(44 830)"><path d="M0 -36L31.2 -18L31.2 18L0 36L-31.2 18L-31.2 -18Z" fill="#F77F00"></path></g><g transform="translate(34 19)"><path d="M0 -26L22.5 -13L22.5 13L0 26L-22.5 13L-22.5 -13Z" fill="#F77F00"></path></g><g transform="translate(279 336)"><path d="M0 -55L47.6 -27.5L47.6 27.5L0 55L-47.6 27.5L-47.6 -27.5Z" fill="#F77F00"></path></g><g transform="translate(190 824)"><path d="M0 -32L27.7 -16L27.7 16L0 32L-27.7 16L-27.7 -16Z" fill="#F77F00"></path></g><g transform="translate(344 192)"><path d="M0 -41L35.5 -20.5L35.5 20.5L0 41L-35.5 20.5L-35.5 -20.5Z" fill="#F77F00"></path></g><g transform="translate(308 503)"><path d="M0 -68L58.9 -34L58.9 34L0 68L-58.9 34L-58.9 -34Z" fill="#F77F00"></path></g><g transform="translate(188 648)"><path d="M0 -40L34.6 -20L34.6 20L0 40L-34.6 20L-34.6 -20Z" fill="#F77F00"></path></g><g transform="translate(372 25)"><path d="M0 -28L24.2 -14L24.2 14L0 28L-24.2 14L-24.2 -14Z" fill="#F77F00"></path></g><g transform="translate(121 378)"><path d="M0 -44L38.1 -22L38.1 22L0 44L-38.1 22L-38.1 -22Z" fill="#F77F00"></path></g><g transform="translate(433 332)"><path d="M0 -39L33.8 -19.5L33.8 19.5L0 39L-33.8 19.5L-33.8 -19.5Z" fill="#F77F00"></path></g></g></svg>