<svg id="visual" viewBox="0 0 960 540" width="960" height="540" xmlns="http://www.w3.org/2000/svg" xmlns:xlink="http://www.w3.org/1999/xlink" version="1.1"><rect width="960" height="540" fill="#ffffff"></rect><g><g transform="translate(665 182)"><path d="M0 -81.3L70.4 -40.7L70.4 40.7L0 81.3L-70.4 40.7L-70.4 -40.7Z" fill="#F77F00"></path></g><g transform="translate(431 455)"><path d="M0 -79L68.4 -39.5L68.4 39.5L0 79L-68.4 39.5L-68.4 -39.5Z" fill="#F77F00"></path></g><g transform="translate(102 410)"><path d="M0 -50L43.3 -25L43.3 25L0 50L-43.3 25L-43.3 -25Z" fill="#F77F00"></path></g><g transform="translate(852 7)"><path d="M0 -42L36.4 -21L36.4 21L0 42L-36.4 21L-36.4 -21Z" fill="#F77F00"></path></g><g transform="translate(919 467)"><path d="M0 -52L45 -26L45 26L0 52L-45 26L-45 -26Z" fill="#F77F00"></path></g><g transform="translate(318 316)"><path d="M0 -52L45 -26L45 26L0 52L-45 26L-45 -26Z" fill="#F77F00"></path></g><g transform="translate(605 498)"><path d="M0 -33L28.6 -16.5L28.6 16.5L0 33L-28.6 16.5L-28.6 -16.5Z" fill="#F77F00"></path></g><g transform="translate(505 270)"><path d="M0 -39L33.8 -19.5L33.8 19.5L0 39L-33.8 19.5L-33.8 -19.5Z" fill="#F77F00"></path></g><g transform="translate(843 276)"><path d="M0 -49L42.4 -24.5L42.4 24.5L0 49L-42.4 24.5L-42.4 -24.5Z" fill="#F77F00"></path></g><g transform="translate(240 4)"><path d="M0 -72L62.4 -36L62.4 36L0 72L-62.4 36L-62.4 -36Z" fill="#F77F00"></path></g><g transform="translate(53 138)"><path d="M0 -73L63.2 -36.5L63.2 36.5L0 73L-63.2 36.5L-63.2 -36.5Z" fill="#F77F00"></path></g><g transform="translate(389 80)"><path d="M0 -37L32 -18.5L32 18.5L0 37L-32 18.5L-32 -18.5Z" fill="#F77F00"></path></g><g transform="translate(240 532)"><path d="M0 -36L31.2 -18L31.2 18L0 36L-31.2 18L-31.2 -18Z" fill="#F77F00"></path></g><g transform="translate(626 14)"><path d="M0 -75L65 -37.5L65 37.5L0 75L-65 37.5L-65 -37.5Z" fill="#F77F00"></path></g></g></svg>