<svg xmlns="http://www.w3.org/2000/svg" xmlns:xlink="http://www.w3.org/1999/xlink" id="Grupo_625" data-name="Grupo 625" width="67" height="67" viewBox="0 0 67 67"><defs><clipPath id="clip-path"><rect id="Rect&#xE1;ngulo_414" data-name="Rect&#xE1;ngulo 414" width="32" height="32" transform="translate(-0.475 0.425)" fill="none" stroke="#33a1fd" stroke-width="1.5"></rect></clipPath></defs><g id="Elipse_58" data-name="Elipse 58" transform="translate(0 0)" fill="none" stroke="#33a1fd" stroke-width="1.5"><circle cx="33.5" cy="33.5" r="33.5" stroke="none"></circle><circle cx="33.5" cy="33.5" r="32.75" fill="none"></circle></g><g id="Grupo_498" data-name="Grupo 498" transform="translate(20.475 16.575)"><g id="Grupo_181" data-name="Grupo 181" transform="translate(0 0)" clip-path="url(#clip-path)"><ellipse id="Elipse_22" data-name="Elipse 22" cx="4" cy="3" rx="4" ry="3" transform="translate(3.525 2.425)" fill="none" stroke="#33a1fd" stroke-linecap="round" stroke-linejoin="round" stroke-width="1.5"></ellipse><path id="Trazado_1013" data-name="Trazado 1013" d="M23.64,34.493A1.938,1.938,0,0,1,21.689,32.7l-.364-4.214A1.951,1.951,0,0,0,19.4,26.689H15.641A4.578,4.578,0,0,1,11.115,22.6l-1.132-5.32a1.982,1.982,0,0,1,3.9-.7l1.106,5.4c0,.156,0,.806.676.806h3.759a5.879,5.879,0,0,1,5.827,5.359l.338,4.24a1.95,1.95,0,0,1-1.788,2.1C23.748,34.491,23.694,34.493,23.64,34.493Z" transform="translate(-3.854 -3.083)" fill="none" stroke="#33a1fd" stroke-linecap="round" stroke-linejoin="round" stroke-width="1.5"></path><path id="Trazado_1014" data-name="Trazado 1014" d="M1,19H2.561a1.3,1.3,0,0,1,1.3,1.015l1.5,6.5a5.2,5.2,0,0,0,5.073,4.188h3.733a1.3,1.3,0,0,1,1.3,1.145l.325,2.6a1.3,1.3,0,0,1-1.3,1.457H1" transform="translate(-0.724 -4.498)" fill="none" stroke="#33a1fd" stroke-linecap="round" stroke-linejoin="round" stroke-width="1.5"></path><line id="L&#xED;nea_25" data-name="L&#xED;nea 25" y1="7" transform="translate(23.525 3.425)" fill="none" stroke="#33a1fd" stroke-linecap="round" stroke-linejoin="round" stroke-width="1.5"></line><line id="L&#xED;nea_26" data-name="L&#xED;nea 26" y1="7" transform="translate(27.525 3.425)" fill="none" stroke="#33a1fd" stroke-linecap="round" stroke-linejoin="round" stroke-width="1.5"></line><path id="Trazado_1015" data-name="Trazado 1015" d="M43,3h.65a1.951,1.951,0,0,1,0,3.9H43" transform="translate(-15.411 1.096)" fill="none" stroke="#33a1fd" stroke-linecap="round" stroke-linejoin="round" stroke-width="1.5"></path><path id="Trazado_1016" data-name="Trazado 1016" d="M27,3V5.211A7.808,7.808,0,0,0,28.3,9.5a7.808,7.808,0,0,0,1.3-4.292V3" transform="translate(-9.816 1.096)" fill="none" stroke="#33a1fd" stroke-linecap="round" stroke-linejoin="round" stroke-width="1.5"></path></g></g></svg>