<svg xmlns="http://www.w3.org/2000/svg" xmlns:xlink="http://www.w3.org/1999/xlink" width="67" height="67" viewBox="0 0 67 67"><defs><clipPath id="clip-path"><rect id="Rect&#xE1;ngulo_419" data-name="Rect&#xE1;ngulo 419" width="36.318" height="35.733" fill="none" stroke="#33a1fd" stroke-width="1.5"></rect></clipPath></defs><g id="Grupo_624" data-name="Grupo 624" transform="translate(-0.15)"><g id="Elipse_56" data-name="Elipse 56" transform="translate(0.15 0)" fill="none" stroke="#33a1fd" stroke-width="1.5"><circle cx="33.5" cy="33.5" r="33.5" stroke="none"></circle><circle cx="33.5" cy="33.5" r="32.75" fill="none"></circle></g><g id="Grupo_498" data-name="Grupo 498" transform="translate(16.83 15.691)"><g id="Grupo_189" data-name="Grupo 189" clip-path="url(#clip-path)"><path id="Trazado_1028" data-name="Trazado 1028" d="M17.637,1.163a2.1,2.1,0,0,1,1.508,1.353,2.009,2.009,0,0,1,.116.67,2.072,2.072,0,0,1-.969,1.8L6.343,12.4a.729.729,0,0,1-.81-.023L1.151,9.306a.405.405,0,0,1-.062-.569.4.4,0,0,1,.07-.068L3,7.047a.408.408,0,0,1,.391-.067l2.3,1.37L8.615,6.311,3.077,2.885a.5.5,0,0,1-.05-.709A.525.525,0,0,1,3.106,2.1l1.355-1a.5.5,0,0,1,.469-.067L12.56,3.871,16.091,1.46A1.963,1.963,0,0,1,17.637,1.163Z" transform="translate(-0.239 -0.239)" fill="none" stroke="#33a1fd" stroke-linecap="round" stroke-linejoin="round" stroke-width="1.5"></path><path id="Trazado_1029" data-name="Trazado 1029" d="M41.945,39.523a1.522,1.522,0,0,1-1.522,1.522H28.247a1.522,1.522,0,0,1-1.522-1.522V38.36a1.509,1.509,0,0,1,.161-.68l1.361-2.723H40.423l1.362,2.723a1.53,1.53,0,0,1,.16.68Z" transform="translate(-6.388 -8.356)" fill="none" stroke="#33a1fd" stroke-linecap="round" stroke-linejoin="round" stroke-width="1.5"></path><line id="L&#xED;nea_42" data-name="L&#xED;nea 42" y1="2.283" transform="translate(21.859 32.689)" fill="none" stroke="#33a1fd" stroke-linecap="round" stroke-linejoin="round" stroke-width="1.5"></line><line id="L&#xED;nea_43" data-name="L&#xED;nea 43" y1="2.283" transform="translate(34.035 32.689)" fill="none" stroke="#33a1fd" stroke-linecap="round" stroke-linejoin="round" stroke-width="1.5"></line><path id="Trazado_1030" data-name="Trazado 1030" d="M28.725,33.523l.549-3.3a1.521,1.521,0,0,1,1.5-1.271h8.076a1.522,1.522,0,0,1,1.5,1.271l.548,3.3" transform="translate(-6.866 -6.921)" fill="none" stroke="#33a1fd" stroke-linecap="round" stroke-linejoin="round" stroke-width="1.5"></path><line id="L&#xED;nea_44" data-name="L&#xED;nea 44" x2="3.764" transform="translate(20.378 29.646)" fill="none" stroke="#33a1fd" stroke-linecap="round" stroke-linejoin="round" stroke-width="1.5"></line><line id="L&#xED;nea_45" data-name="L&#xED;nea 45" x2="3.794" transform="translate(31.752 29.646)" fill="none" stroke="#33a1fd" stroke-linecap="round" stroke-linejoin="round" stroke-width="1.5"></line><path id="Trazado_1031" data-name="Trazado 1031" d="M20.725,14.957a9.131,9.131,0,0,1,8.919,7.162" transform="translate(-4.954 -3.575)" fill="none" stroke="#33a1fd" stroke-linecap="round" stroke-linejoin="round" stroke-width="1.5"></path><path id="Trazado_1032" data-name="Trazado 1032" d="M17.857,36.089a9.132,9.132,0,0,1-9.132-9.132" transform="translate(-2.085 -6.443)" fill="none" stroke="#33a1fd" stroke-linecap="round" stroke-linejoin="round" stroke-width="1.5"></path><path id="Trazado_1033" data-name="Trazado 1033" d="M28.867,21.778l2.721,1.737,1.737-2.721" transform="translate(-6.9 -4.97)" fill="none" stroke="#33a1fd" stroke-linecap="round" stroke-linejoin="round" stroke-width="1.5"></path><path id="Trazado_1034" data-name="Trazado 1034" d="M10.291,28.24,8.008,25.957,5.725,28.24" transform="translate(-1.368 -6.205)" fill="none" stroke="#33a1fd" stroke-linecap="round" stroke-linejoin="round" stroke-width="1.5"></path><line id="L&#xED;nea_46" data-name="L&#xED;nea 46" y1="0.761" transform="translate(6.64 19.753)" fill="none" stroke="#33a1fd" stroke-linecap="round" stroke-linejoin="round" stroke-width="1.5"></line></g></g></g></svg>