<svg xmlns="http://www.w3.org/2000/svg" xmlns:xlink="http://www.w3.org/1999/xlink" width="65" height="67" viewBox="0 0 65 67"><defs><clipPath id="clip-path"><rect id="Rect&#xE1;ngulo_412" data-name="Rect&#xE1;ngulo 412" width="32.223" height="40.049" fill="none" stroke="#f79824" stroke-width="1.5"></rect></clipPath></defs><g id="Grupo_623" data-name="Grupo 623" transform="translate(-0.275)"><g id="Elipse_34" data-name="Elipse 34" transform="translate(0.275 0)" fill="none" stroke="#f79824" stroke-width="1.5"><ellipse cx="32.5" cy="33.5" rx="32.5" ry="33.5" stroke="none"></ellipse><ellipse cx="32.5" cy="33.5" rx="31.75" ry="32.75" fill="none"></ellipse></g><g id="Grupo_498" data-name="Grupo 498" transform="translate(16.769 13.524)"><g id="Grupo_177" data-name="Grupo 177" clip-path="url(#clip-path)"><path id="Trazado_1005" data-name="Trazado 1005" d="M34.249,4.781A3.78,3.78,0,1,0,38.029,1,3.78,3.78,0,0,0,34.249,4.781Z" transform="translate(-22.547 2.414)" fill="none" stroke="#f79824" stroke-linecap="round" stroke-linejoin="round" stroke-width="1.5"></path><rect id="Rect&#xE1;ngulo_411" data-name="Rect&#xE1;ngulo 411" width="13.609" height="9.073" rx="4.536" transform="translate(16.238 29.121)" fill="none" stroke="#f79824" stroke-linecap="round" stroke-linejoin="round" stroke-width="1.5"></rect><path id="Trazado_1006" data-name="Trazado 1006" d="M64.886,80.617v-.756a2.268,2.268,0,0,1,4.536,0v.756" transform="translate(-44.111 -51.496)" fill="none" stroke="#f79824" stroke-linecap="round" stroke-linejoin="round" stroke-width="1.5"></path><path id="Trazado_1007" data-name="Trazado 1007" d="M19.921,20.415v4.536a2.268,2.268,0,1,0,4.536,0v-5.3a4.537,4.537,0,0,0-4.536-4.537H12.248a1.512,1.512,0,0,1-1.188-.577L5.07,6.916a2.268,2.268,0,0,0-3.6,2.756l.036.046,9.345,12.114V37.048a2.268,2.268,0,0,0,2.268,2.268" transform="translate(0.856 -1.123)" fill="none" stroke="#f79824" stroke-linecap="round" stroke-linejoin="round" stroke-width="1.5"></path></g></g></g></svg>