<svg xmlns="http://www.w3.org/2000/svg" width="67" height="67" viewBox="0 0 67 67"><g id="Grupo_627" data-name="Grupo 627" transform="translate(0.25)"><g id="Elipse_57" data-name="Elipse 57" transform="translate(-0.25 0)" fill="none" stroke="#ffcf00" stroke-width="1.5"><circle cx="33.5" cy="33.5" r="33.5" stroke="none"></circle><circle cx="33.5" cy="33.5" r="32.75" fill="none"></circle></g><rect id="Rect&#xE1;ngulo_420" data-name="Rect&#xE1;ngulo 420" width="26" height="29" rx="4" transform="translate(20.75 17)" fill="none" stroke="#ffcf00" stroke-linecap="round" stroke-linejoin="round" stroke-width="1.5"></rect><path id="Trazado_1035" data-name="Trazado 1035" d="M11,39v3.092a1.546,1.546,0,0,0,3.092,0V39" transform="translate(11.938 6.952)" fill="none" stroke="#ffcf00" stroke-linecap="round" stroke-linejoin="round" stroke-width="1.5"></path><path id="Trazado_1036" data-name="Trazado 1036" d="M33,39v3.092a1.546,1.546,0,0,0,3.092,0V39" transform="translate(6.943 6.952)" fill="none" stroke="#ffcf00" stroke-linecap="round" stroke-linejoin="round" stroke-width="1.5"></path><path id="Trazado_1037" data-name="Trazado 1037" d="M5.638,16.729H2.546A1.546,1.546,0,0,1,1,15.184V10.546A1.546,1.546,0,0,1,2.546,9H5.638" transform="translate(14.209 13.763)" fill="none" stroke="#ffcf00" stroke-linecap="round" stroke-linejoin="round" stroke-width="1.5"></path><path id="Trazado_1038" data-name="Trazado 1038" d="M41,16.729h3.092a1.546,1.546,0,0,0,1.546-1.546V10.546A1.546,1.546,0,0,0,44.092,9H41" transform="translate(5.701 13.763)" fill="none" stroke="#ffcf00" stroke-linecap="round" stroke-linejoin="round" stroke-width="1.5"></path><line id="L&#xED;nea_47" data-name="L&#xED;nea 47" x2="26" transform="translate(20.75 36)" fill="none" stroke="#ffcf00" stroke-linecap="round" stroke-linejoin="round" stroke-width="1.5"></line><line id="L&#xED;nea_48" data-name="L&#xED;nea 48" x2="3" transform="translate(23.75 40)" fill="none" stroke="#ffcf00" stroke-linecap="round" stroke-linejoin="round" stroke-width="1.5"></line><line id="L&#xED;nea_49" data-name="L&#xED;nea 49" x2="4" transform="translate(40.75 40)" fill="none" stroke="#ffcf00" stroke-linecap="round" stroke-linejoin="round" stroke-width="1.5"></line><line id="L&#xED;nea_50" data-name="L&#xED;nea 50" x2="7" transform="translate(28.75 20)" fill="none" stroke="#ffcf00" stroke-linecap="round" stroke-linejoin="round" stroke-width="1.5"></line><path id="Trazado_1039" data-name="Trazado 1039" d="M12.886,6.273a.386.386,0,0,1,0-.773" transform="translate(11.597 14.558)" fill="none" stroke="#ffcf00" stroke-width="1.5"></path><path id="Trazado_1040" data-name="Trazado 1040" d="M13,6.273A.386.386,0,1,0,13,5.5" transform="translate(11.484 14.558)" fill="none" stroke="#ffcf00" stroke-width="1.5"></path></g></svg>