<svg id="visual" viewBox="0 0 900 600" width="900" height="600" xmlns="http://www.w3.org/2000/svg" xmlns:xlink="http://www.w3.org/1999/xlink" version="1.1"><rect x="0" y="0" width="900" height="600" fill="#ffffff"></rect><path d="M0 367L12.5 385.8C25 404.7 50 442.3 75 440.5C100 438.7 125 397.3 150 369.3C175 341.3 200 326.7 225 361.5C250 396.3 275 480.7 300 495C325 509.3 350 453.7 375 422.5C400 391.3 425 384.7 450 391C475 397.3 500 416.7 525 445.3C550 474 575 512 600 516.8C625 521.7 650 493.3 675 468.7C700 444 725 423 750 432.5C775 442 800 482 825 466C850 450 875 378 887.5 342L900 306L900 601L887.5 601C875 601 850 601 825 601C800 601 775 601 750 601C725 601 700 601 675 601C650 601 625 601 600 601C575 601 550 601 525 601C500 601 475 601 450 601C425 601 400 601 375 601C350 601 325 601 300 601C275 601 250 601 225 601C200 601 175 601 150 601C125 601 100 601 75 601C50 601 25 601 12.5 601L0 601Z" fill="#0066FF" stroke-linecap="round" stroke-linejoin="miter"></path></svg>