<svg id="visual" viewBox="0 0 450 900" width="450" height="900" xmlns="http://www.w3.org/2000/svg" xmlns:xlink="http://www.w3.org/1999/xlink" version="1.1"><rect x="0" y="0" width="450" height="900" fill="#ffffff"></rect><path d="M0 236L2.5 297.2C5 358.3 10 480.7 15 502.7C20 524.7 25 446.3 30 399.2C35 352 40 336 45 401.5C50 467 55 614 60 613.3C65 612.7 70 464.3 75 415.2C80 366 85 416 90 495.7C95 575.3 100 684.7 105 677.8C110 671 115 548 120 465.7C125 383.3 130 341.7 135 341.3C140 341 145 382 150 396.3C155 410.7 160 398.3 165 417.2C170 436 175 486 180 527.7C185 569.3 190 602.7 195 605.2C200 607.7 205 579.3 210 563C215 546.7 220 542.3 225 536.7C230 531 235 524 240 575.2C245 626.3 250 735.7 255 692C260 648.3 265 451.7 270 434.5C275 417.3 280 579.7 285 601.2C290 622.7 295 503.3 300 466.5C305 429.7 310 475.3 315 501C320 526.7 325 532.3 330 486.3C335 440.3 340 342.7 345 369.2C350 395.7 355 546.3 360 570C365 593.7 370 490.3 375 478.7C380 467 385 547 390 624C395 701 400 775 405 756.5C410 738 415 627 420 560.5C425 494 430 472 435 505.2C440 538.3 445 626.7 447.5 670.8L450 715L450 901L447.5 901C445 901 440 901 435 901C430 901 425 901 420 901C415 901 410 901 405 901C400 901 395 901 390 901C385 901 380 901 375 901C370 901 365 901 360 901C355 901 350 901 345 901C340 901 335 901 330 901C325 901 320 901 315 901C310 901 305 901 300 901C295 901 290 901 285 901C280 901 275 901 270 901C265 901 260 901 255 901C250 901 245 901 240 901C235 901 230 901 225 901C220 901 215 901 210 901C205 901 200 901 195 901C190 901 185 901 180 901C175 901 170 901 165 901C160 901 155 901 150 901C145 901 140 901 135 901C130 901 125 901 120 901C115 901 110 901 105 901C100 901 95 901 90 901C85 901 80 901 75 901C70 901 65 901 60 901C55 901 50 901 45 901C40 901 35 901 30 901C25 901 20 901 15 901C10 901 5 901 2.5 901L0 901Z" fill="#0066FF" stroke-linecap="round" stroke-linejoin="miter"></path></svg>